<svg id="Layer_1" data-name="Layer 1" xmlns="http://www.w3.org/2000/svg" viewBox="0 0 34 23"><defs><style>.cls-1{fill:#2b2b2b;fill-rule:evenodd;}</style></defs><path class="cls-1" d="M9.63.14l1.48.9a.5.5,0,0,1,.12.75C9.08,4.44,7.12,7.32,7.12,10.88c2.94,0,6,2.43,6,5.53a6.24,6.24,0,0,1-7,6.53,6.83,6.83,0,0,1-6-6C-.83,10,3,3.77,8.6.15A1,1,0,0,1,9.63.14Zm20.91,0L32,1a.51.51,0,0,1,.13.75C30,4.44,28,7.32,28,10.88c2.94,0,6,2.43,6,5.53a6.24,6.24,0,0,1-7,6.53,6.83,6.83,0,0,1-6-6C20.08,10,23.89,3.77,29.5.15A1,1,0,0,1,30.54.14Z" transform="translate(0 0)"/></svg>