<svg id="Layer_1" data-name="Layer 1" xmlns="http://www.w3.org/2000/svg" viewBox="0 0 40.25 40.25"><defs><style>.cls-1{fill:#b791e2;fill-rule:evenodd;isolation:isolate;opacity:0.15;}.cls-2{fill:#2b2b2b;stroke:#2b2b2b;stroke-width:0.25px;}</style></defs><path class="cls-1" d="M39.76,18.94a.59.59,0,0,0-.64.13l-1.76,1.76v-12a.58.58,0,0,0-.58-.59H32.27L33.9,6.6h0L35.48,5a1.79,1.79,0,0,0,0-2.54L33.66.65A1.79,1.79,0,0,0,32.39.12a1.75,1.75,0,0,0-1.26.53L29.55,2.23,27.64,4.15l-4.09,4.1H5.33V2.42a.59.59,0,0,0-.59-.59A4.64,4.64,0,0,0,.12,6.46v25a.59.59,0,0,0,0,.13,4.46,4.46,0,0,0,4.43,4.12H22.51l-3.38,3.39a.6.6,0,0,0-.12.64.58.58,0,0,0,.54.36h20a.59.59,0,0,0,.59-.58V19.48A.6.6,0,0,0,39.76,18.94ZM32,1.48a.62.62,0,0,1,.87,0l1.82,1.83a.63.63,0,0,1,0,.88L33.49,5.36l-2.7-2.71Zm-2,2,2.7,2.71L31.58,7.27,28.89,4.56ZM17.52,20.89l-1.68.59-1.12-1.12.59-1.69ZM35,29.3,29.3,35a.1.1,0,0,0,.07.17h5.75V29.37A.1.1,0,0,0,35,29.3ZM15.12,17.62l3.5,3.5,13-13-3.5-3.5Z"/><path class="cls-2" d="M35.52,28.38a.59.59,0,0,0-.64.13l-6.41,6.43a.6.6,0,0,0-.13.65.59.59,0,0,0,.54.36H35.3a.59.59,0,0,0,.59-.59V28.92A.6.6,0,0,0,35.52,28.38ZM30.3,34.77l4.41-4.42v4.42Z"/><path class="cls-2" d="M39.76,18.94a.59.59,0,0,0-.64.13l-1.76,1.76v-12a.58.58,0,0,0-.58-.59H32.27L33.9,6.6h0L35.48,5a1.79,1.79,0,0,0,0-2.54L33.66.65A1.79,1.79,0,0,0,32.39.12a1.75,1.75,0,0,0-1.26.53L29.55,2.23,27.64,4.15l-4.09,4.1H5.33V2.42a.59.59,0,0,0-.59-.59A4.64,4.64,0,0,0,.12,6.46v25a.59.59,0,0,0,0,.13,4.46,4.46,0,0,0,4.43,4.12H22.51l-3.38,3.39a.6.6,0,0,0-.12.64.58.58,0,0,0,.54.36h20a.59.59,0,0,0,.59-.58V19.48A.6.6,0,0,0,39.76,18.94ZM32,1.48a.62.62,0,0,1,.87,0l1.82,1.83a.63.63,0,0,1,0,.88L33.49,5.36l-2.7-2.71Zm-2,2,2.7,2.71L31.58,7.27,28.89,4.56ZM39,26.1H37.87a.59.59,0,0,0-.59.59.58.58,0,0,0,.59.59H39v1.77H37.87a.59.59,0,0,0-.59.59.58.58,0,0,0,.59.59H39V32H37.87a.58.58,0,0,0-.59.59.59.59,0,0,0,.59.59H39V35H37.87a.58.58,0,0,0-.59.59.59.59,0,0,0,.59.59H39V39H21l5.93-6a.59.59,0,0,0,0-.83l-.09-.07a.57.57,0,0,0-.74.07l-2.38,2.38H4.57A3.26,3.26,0,0,1,1.3,31.37c0-.11,0-.22,0-.33h0a1,1,0,0,1,0-.16h0l0-.14v0l0-.11,0-.07s0-.06,0-.09l0-.08,0-.06s0-.08,0-.12v0c0-.05.05-.1.07-.14h0A3.46,3.46,0,0,1,4,28.1h0l.15,0h0l.14,0h.38a.59.59,0,0,0,.59-.59V23.17a.59.59,0,1,0-1.17,0v3.72a4.46,4.46,0,0,0-2.64,1.28,2.39,2.39,0,0,0-.22.23V6.46a3.46,3.46,0,0,1,2.86-3.4V20.81a.59.59,0,1,0,1.17,0V9.43h17l-3.25,3.25a.59.59,0,0,0,.83.83l4.25-4.26h0L28.06,5.4l2.69,2.7-.32.32h0L18.6,20.3l-2.7-2.71,2.33-2.34a.59.59,0,0,0-.83-.83l-2.75,2.76s0,0,0,0v0l0,0,0,0v.06l0,0v0l-1.15,3.25-.78,2.21a.29.29,0,0,0,0,.09h-2a.59.59,0,0,0-.59.59.58.58,0,0,0,.59.59H26.88a.58.58,0,0,0,.58-.59.59.59,0,0,0-.58-.59H15.21l3.58-1.27h0l0,0h0l0,0h0l0,0h0l.05,0L31.09,9.43h5.1V22l-8.4,8.42a.6.6,0,0,0,0,.84l.05,0a.56.56,0,0,0,.37.13.58.58,0,0,0,.37-.13l0,0h0L39,20.9ZM17.52,20.89l-1.68.59-1.12-1.12.59-1.69Z"/></svg>