<?xml version="1.0" encoding="utf-8"?>
<!-- Generator: Adobe Illustrator 23.0.3, SVG Export Plug-In . SVG Version: 6.00 Build 0)  -->
<svg version="1.1" id="Icons" xmlns="http://www.w3.org/2000/svg" xmlns:xlink="http://www.w3.org/1999/xlink" x="0px" y="0px"
	 viewBox="0 0 32 32" style="enable-background:new 0 0 32 32;" xml:space="preserve">
<g>
	<path d="M27,4H5C3.3,4,2,5.3,2,7v18c0,1.7,1.3,3,3,3h22c1.7,0,3-1.3,3-3V7C30,5.3,28.7,4,27,4z M12.1,7.6c0.1-0.1,0.1-0.2,0.2-0.3
		c0.4-0.4,1-0.4,1.4,0c0.1,0.1,0.2,0.2,0.2,0.3C14,7.7,14,7.9,14,8c0,0.1,0,0.3-0.1,0.4c-0.1,0.1-0.1,0.2-0.2,0.3
		C13.5,8.9,13.3,9,13,9c-0.1,0-0.3,0-0.4-0.1c-0.1-0.1-0.2-0.1-0.3-0.2c-0.1-0.1-0.2-0.2-0.2-0.3C12,8.3,12,8.1,12,8
		C12,7.9,12,7.7,12.1,7.6z M9.1,7.6c0.1-0.1,0.1-0.2,0.2-0.3c0.1-0.1,0.2-0.2,0.3-0.2C10,6.9,10.4,7,10.7,7.3
		c0.1,0.1,0.2,0.2,0.2,0.3C11,7.7,11,7.9,11,8c0,0.3-0.1,0.5-0.3,0.7C10.5,8.9,10.3,9,10,9C9.7,9,9.5,8.9,9.3,8.7C9.1,8.5,9,8.3,9,8
		C9,7.9,9,7.7,9.1,7.6z M6.3,7.3c0,0,0.1-0.1,0.1-0.1c0.1,0,0.1-0.1,0.2-0.1C6.7,7,6.7,7,6.8,7c0.1,0,0.3,0,0.4,0
		c0.1,0,0.1,0,0.2,0.1c0.1,0,0.1,0.1,0.2,0.1c0,0,0.1,0.1,0.1,0.1c0.1,0.1,0.2,0.2,0.2,0.3C8,7.7,8,7.9,8,8c0,0.1,0,0.3-0.1,0.4
		C7.9,8.5,7.8,8.6,7.7,8.7C7.5,8.9,7.3,9,7,9S6.5,8.9,6.3,8.7C6.1,8.5,6,8.3,6,8C6,7.7,6.1,7.5,6.3,7.3z M17,23c0,0.6-0.4,1-1,1H6
		c-0.6,0-1-0.4-1-1v-0.8l6.9-3.1l5.1,3.4V23z M17,20.1l-4.4-3c-0.3-0.2-0.6-0.2-1-0.1L5,20v-7c0-0.6,0.4-1,1-1h10c0.6,0,1,0.4,1,1
		V20.1z M27,23c0,0.6-0.4,1-1,1h-6c-0.6,0-1-0.4-1-1v-3c0-0.6,0.4-1,1-1h6c0.6,0,1,0.4,1,1V23z M26,18h-3c-0.6,0-1-0.4-1-1
		s0.4-1,1-1h3c0.6,0,1,0.4,1,1S26.6,18,26,18z M26,15h-6c-0.6,0-1-0.4-1-1s0.4-1,1-1h6c0.6,0,1,0.4,1,1S26.6,15,26,15z"/>
	<path d="M9.7,15.3c-0.4-0.4-1-0.4-1.4,0c-0.1,0.1-0.2,0.2-0.2,0.3C8,15.7,8,15.9,8,16c0,0.3,0.1,0.5,0.3,0.7
		c0.1,0.1,0.2,0.2,0.3,0.2S8.9,17,9,17c0.3,0,0.5-0.1,0.7-0.3C9.9,16.5,10,16.3,10,16c0-0.1,0-0.3-0.1-0.4S9.8,15.4,9.7,15.3z"/>
</g>
</svg>
